#!OML:ASF X:\für Bonn\!DataBase\2005_08_12_Daniel\c3d\Daniel.ASF
:FULLY-SPECIFIED
:DEGREES
140
root -5.3012 16.2033 15.7014 -172.613 45.2523 546.973
lowerback 12.0955 -5.09129 -3.70978
upperback 2.53402 -7.11862 -1.62943
thorax -3.83666 -3.41669 1.42716
lowerneck -6.48376 7.69111 -0.0322372
upperneck -1.83504 10.5079 -8.98533
head 1.04548 5.21489 -2.50549
rclavicle -1.70955e-014 3.33958e-014
rhumerus -63.4433 9.69287 -95.0496
rradius 72.2481
rwrist 3.44921
rhand -31.3522 31.3701
rfingers 7.12502
rthumb -4.62325 1.44056
lclavicle -1.70955e-014 3.33958e-014
lhumerus -48.6913 9.04529 93.6291
lradius 121.223
lwrist 15.7524
lhand -22.683 -13.4064
lfingers 7.12502
lthumb 3.74924 16.5403
rfemur -32.416 -4.39474 15.6729
rtibia 89.1264
rfoot -9.49666 -4.7359
rtoes -12.6608
lfemur -4.04524 1.5951 -32.2902
ltibia 48.7093
lfoot -35.945 0.832102
ltoes 8.46774
141
root -5.07509 16.3071 15.4761 -172.18 44.4753 547.575
lowerback 11.9255 -5.38935 -3.26708
upperback 2.39695 -7.46296 -1.37721
thorax -3.89479 -3.59651 1.48568
lowerneck -6.40636 7.81546 0.115501
upperneck -1.52053 10.6855 -9.09124
head 1.15808 5.29027 -2.55441
rclavicle 2.26615e-014 2.54444e-014
rhumerus -64.0234 9.80881 -94.5963
rradius 71.8194
rwrist 3.63481
rhand -31.0592 31.702
rfingers 7.12502
rthumb -4.34035 1.76651
lclavicle 2.26615e-014 2.54444e-014
lhumerus -48.9577 8.57875 93.5518
lradius 121.864
lwrist 15.5251
lhand -22.222 -13.747
lfingers 7.12502
lthumb 4.19439 16.1915
rfemur -33.0243 -3.03446 16.4736
rtibia 86.7298
rfoot -10.2029 -4.80776
rtoes -12.1547
lfemur -2.21987 0.986012 -31.6623
ltibia 47.1993
lfoot -34.0874 1.11068
ltoes 7.26359
142
root -4.84781 16.4143 15.246 -171.802 43.7398 548.19
lowerback 11.7839 -5.66363 -2.80154
upperback 2.27845 -7.7714 -1.11651
thorax -3.95389 -3.75821 1.53708
lowerneck -6.38532 7.88993 0.0703518
upperneck -1.18667 10.8099 -9.05946
head 1.26316 5.33987 -2.52531
rclavicle -6.87795e-014 -1.27222e-014
rhumerus -64.6691 9.82457 -94.1458
rradius 71.4608
rwrist 3.82447
rhand -30.8785 32.073
rfingers 7.12502
rthumb -4.16583 2.13404
lclavicle -6.87795e-014 -1.27222e-014
lhumerus -49.2644 8.11873 93.432
lradius 122.385
lwrist 14.9709
lhand -21.4032 -14.1668
lfingers 7.12502
lthumb 4.98503 15.7546
rfemur -33.3607 -1.59356 17.204
rtibia 84.0745
rfoot -10.9228 -4.95681
rtoes -11.7798
lfemur -0.361377 0.412045 -31.0388
ltibia 45.6581
lfoot -31.8508 1.37756
ltoes 6.10967
143
root -4.61909 16.5305 15.0066 -171.438 43.0175 548.74
lowerback 11.5351 -5.92518 -2.30425
upperback 2.17115 -8.05682 -0.883148
thorax -3.95335 -3.91049 1.52723
lowerneck -6.29488 7.95606 -0.163284
upperneck -0.943513 10.9229 -8.8847
head 1.30425 5.39089 -2.42314
rclavicle 4.53229e-014 -4.13472e-014
rhumerus -65.324 9.78614 -93.7496
rradius 71.2196
rwrist 3.6912
rhand -30.5939 32.3106
rfingers 7.12502
rthumb -3.89095 2.36636
lclavicle 4.53229e-014 -4.13472e-014
lhumerus -49.7242 7.58345 93.3017
lradius 122.804
lwrist 14.3492
lhand -20.5939 -14.7066
lfingers 7.12502
lthumb 5.76642 15.1949
rfemur -33.532 -0.124165 17.7609
rtibia 81.1883
rfoot -11.4809 -5.06626
rtoes -10.7722
lfemur 1.44327 -0.321761 -30.5361
ltibia 44.0585
lfoot -29.127 1.7531
ltoes 5.34852
144
root -4.39022 16.6534 14.7574 -171.129 42.2849 549.258
lowerback 11.3409 -6.18383 -1.83315
upperback 2.02552 -8.34457 -0.622237
thorax -4.01693 -4.06197 1.56838
lowerneck -6.15426 8.01295 -0.211484
upperneck -0.663302 11.0227 -8.93153
head 1.37536 5.43312 -2.4263
rclavicle -1.43125e-014 0
rhumerus -66.0872 9.85795 -93.3401
rradius 71.1461
rwrist 3.41726
rhand -30.2921 32.222
rfingers 7.12502
rthumb -3.59959 2.27267
lclavicle -1.43125e-014 0
lhumerus -50.1839 7.0254 93.1137
lradius 122.787
lwrist 13.6493
lhand -19.8928 -15.455
lfingers 7.12502
lthumb 6.44329 14.427
rfemur -33.4541 1.23873 18.1793
rtibia 78.0652
rfoot -11.8445 -5.09892
rtoes -8.91748
lfemur 3.28743 -1.107 -30.0936
ltibia 42.3908
lfoot -26.058 2.20728
ltoes 4.37038
145
root -4.15479 16.7818 14.4978 -170.835 41.5725 549.666
lowerback 10.9613 -6.43069 -1.42363
upperback 1.9277 -8.62148 -0.406871
thorax -3.92866 -4.21068 1.56774
lowerneck -6.0586 8.06143 -0.180976
upperneck -0.410347 11.102 -8.93538
head 1.44664 5.46487 -2.42839
rclavicle 5.14852e-014 3.02153e-014
rhumerus -66.7996 9.9249 -92.9946
rradius 71.1896
rwrist 2.87949
rhand -29.8439 32.1347
rfingers 7.12502
rthumb -3.16675 2.17843
lclavicle 5.14852e-014 3.02153e-014
lhumerus -50.6502 6.28595 92.7829
lradius 122.637
lwrist 13.086
lhand -19.2754 -16.1098
lfingers 7.12502
lthumb 7.03928 13.7532
rfemur -33.3209 2.46995 18.4436
rtibia 74.7807
rfoot -12.075 -5.19371
rtoes -6.85863
lfemur 5.03869 -1.73068 -29.6297
ltibia 40.6851
lfoot -22.6452 2.40769
ltoes 3.65298
146
root -3.91729 16.9159 14.2294 -170.555 40.8844 550.041
lowerback 10.5578 -6.65959 -1.04349
upperback 1.80218 -8.88113 -0.173285
thorax -3.85073 -4.35021 1.59607
lowerneck -5.92818 8.09852 -0.185437
upperneck -0.166469 11.1695 -8.95898
head 1.50768 5.4924 -2.4332
rclavicle 1.33186e-014 -1.59028e-015
rhumerus -67.5563 10.0228 -92.5766
rradius 71.2866
rwrist 2.30718
rhand -29.3587 31.7698
rfingers 7.12502
rthumb -2.69815 1.80713
lclavicle 1.33186e-014 -1.59028e-015
lhumerus -51.272 5.46162 92.5277
lradius 122.499
lwrist 12.4543
lhand -18.8355 -16.5429
lfingers 7.12502
lthumb 7.46392 13.3055
rfemur -33.1362 3.61144 18.653
rtibia 71.3496
rfoot -12.0772 -5.42257
rtoes -6.21181
lfemur 6.71626 -2.20634 -29.1106
ltibia 38.9949
lfoot -19.028 2.55982
ltoes 3.28495
147
root -3.67614 17.0504 13.9538 -170.273 40.2209 550.282
lowerback 9.94808 -6.87775 -0.752495
upperback 1.72003 -9.13787 0.0407758
thorax -3.60452 -4.49041 1.61831
lowerneck -5.78993 8.12076 -0.154457
upperneck -0.0596408 11.2125 -9.1086
head 1.5333 5.51265 -2.48898
rclavicle 2.42517e-014 -1.27222e-014
rhumerus -68.209 10.1578 -92.186
rradius 71.4589
rwrist 1.63515
rhand -28.8666 31.4191
rfingers 7.12502
rthumb -2.22287 1.45091
lclavicle 2.42517e-014 -1.27222e-014
lhumerus -51.7511 4.59374 92.255
lradius 122.354
lwrist 11.8507
lhand -18.4051 -16.6361
lfingers 7.12502
lthumb 7.87933 13.1971
rfemur -32.9629 4.8417 18.7023
rtibia 67.7513
rfoot -11.8872 -5.76993
rtoes -6.73948
lfemur 8.10979 -2.27183 -28.5155
ltibia 37.4049
lfoot -15.1163 2.48036
ltoes 2.4839
148
root -3.43735 17.1823 13.6768 -169.943 39.5706 550.444
lowerback 9.27285 -7.0763 -0.485489
upperback 1.58712 -9.37905 0.223705
thorax -3.37731 -4.62255 1.61107
lowerneck -5.66296 8.122 -0.08
upperneck 0.0723172 11.2233 -9.20759
head 1.56677 5.51579 -2.53628
rclavicle -6.04305e-014 0
rhumerus -68.9624 10.3175 -91.8479
rradius 71.7488
rwrist 0.89514
rhand -28.3535 30.8742
rfingers 7.12502
rthumb -1.72729 0.90141
lclavicle -6.04305e-014 0
lhumerus -52.2465 3.57986 91.9521
lradius 122.343
lwrist 11.3547
lhand -18.113 -16.3749
lfingers 7.12502
lthumb 8.16129 13.4475
rfemur -32.7894 6.02674 18.6753
rtibia 64.0495
rfoot -11.3488 -6.16685
rtoes -7.72243
lfemur 9.25657 -2.38539 -28.0127
ltibia 35.9911
lfoot -11.2174 2.61515
ltoes 1.67186
149
root -3.19896 17.3132 13.3948 -169.605 38.9545 550.471
lowerback 8.47885 -7.26174 -0.33331
upperback 1.46007 -9.61847 0.388361
thorax -3.06328 -4.75382 1.62407
lowerneck -5.57395 8.13036 0.00807089
upperneck 0.160785 11.2404 -9.30619
head 1.59396 5.52281 -2.58481
rclavicle 1.8487e-014 -1.90833e-014
rhumerus -69.6879 10.4134 -91.5175
rradius 72.0911
rwrist 0.22726
rhand -27.8881 30.4204
rfingers 7.12502
rthumb -1.27784 0.444531
lclavicle 1.8487e-014 -1.90833e-014
lhumerus -52.6631 2.55501 91.6428
lradius 122.452
lwrist 10.9067
lhand -17.6579 -15.8582
lfingers 7.12502
lthumb 8.60044 13.9467
rfemur -32.6481 7.32981 18.4408
rtibia 60.2483
rfoot -10.6527 -6.64898
rtoes -8.95258
lfemur 10.1657 -2.59001 -27.6793
ltibia 34.8734
lfoot -7.70493 2.83146
ltoes 0.944247
150
root -2.96629 17.4338 13.1144 -169.313 38.3493 550.372
lowerback 7.74284 -7.42105 -0.270356
upperback 1.29051 -9.83465 0.524977
thorax -2.81529 -4.87112 1.66013
lowerneck -5.54078 8.08388 0.0453541
upperneck 0.298092 11.1874 -9.30768
head 1.6329 5.4926 -2.59296
rclavicle 2.16675e-014 -3.18055e-015
rhumerus -70.418 10.5015 -91.225
rradius 72.363
rwrist -0.458643
rhand -27.4418 30.1304
rfingers 7.12502
rthumb -0.846747 0.152304
lclavicle 2.16675e-014 -3.18055e-015
lhumerus -53.1563 1.5343 91.4094
lradius 122.586
lwrist 10.3938
lhand -17.2179 -15.3064
lfingers 7.12502
lthumb 9.02508 14.4805
rfemur -32.5468 8.73616 17.9886
rtibia 56.4575
rfoot -9.87356 -7.20202
rtoes -9.95941
lfemur 10.8389 -2.85014 -27.4998
ltibia 34.1383
lfoot -4.71353 3.12974
ltoes 0.332949
151
root -2.73841 17.5342 12.8394 -168.991 37.7464 550.138
lowerback 6.93057 -7.58376 -0.328691
upperback 1.1373 -10.0657 0.643366
thorax -2.48957 -4.99556 1.72505
lowerneck -5.56351 8.07103 0.316311
upperneck 0.307111 11.1636 -9.48459
head 1.66967 5.47851 -2.69723
rclavicle -1.03368e-013 2.8625e-014
rhumerus -70.8453 10.7381 -91.069
rradius 72.3649
rwrist -1.19942
rhand -27.1403 30.0401
rfingers 7.12502
rthumb -0.555577 0.0610978
lclavicle -1.03368e-013 2.8625e-014
lhumerus -53.601 0.555012 91.18
lradius 122.782
lwrist 9.92415
lhand -16.7047 -14.8801
lfingers 7.12502
lthumb 9.52027 14.8848
rfemur -32.6121 10.2468 17.2694
rtibia 52.785
rfoot -9.24006 -7.73142
rtoes -11.0766
lfemur 11.1759 -3.07574 -27.4227
ltibia 33.8413
lfoot -2.24326 3.50596
ltoes -0.0430582
152
root -2.51689 17.6154 12.5663 -168.687 37.1459 549.862
lowerback 6.15856 -7.72818 -0.375943
upperback 0.987257 -10.2701 0.741646
thorax -2.18749 -5.10557 1.76227
lowerneck -5.48902 8.06905 0.691544
upperneck 0.220752 11.1431 -9.76603
head 1.67298 5.47121 -2.86034
rclavicle 4.23411e-014 -1.27222e-014
rhumerus -71.1579 11.0524 -90.9721
rradius 72.2874
rwrist -2.02262
rhand -26.8339 30.0862
rfingers 7.12502
rthumb -0.259651 0.106579
lclavicle 4.23411e-014 -1.27222e-014
lhumerus -54.0578 -0.462702 91.0383
lradius 122.924
lwrist 9.29487
lhand -16.3886 -14.6626
lfingers 7.12502
lthumb 9.82525 15.0881
rfemur -32.7464 11.7288 16.3617
rtibia 49.2937
rfoot -8.77624 -7.98513
rtoes -10.8472
lfemur 11.2819 -3.22409 -27.3959
ltibia 33.9971
lfoot -0.147349 3.97119
ltoes -0.359953
153
root -2.29587 17.6795 12.2949 -168.427 36.5458 549.55
lowerback 5.43444 -7.87078 -0.452921
upperback 0.83318 -10.472 0.841985
thorax -1.90916 -5.213 1.8198
lowerneck -5.40278 8.04232 0.973973
upperneck 0.0129975 11.0839 -10.0066
head 1.62293 5.45023 -2.99935
rclavicle 3.10104e-014 3.18055e-014
rhumerus -71.3923 11.3596 -90.8432
rradius 72.2291
rwrist -2.7918
rhand -26.4286 30.2217
rfingers 7.12502
rthumb 0.13179 0.242046
lclavicle 3.10104e-014 3.18055e-014
lhumerus -54.6662 -1.43934 91.0302
lradius 123.057
lwrist 8.68523
lhand -16.144 -14.7796
lfingers 7.12502
lthumb 10.0613 14.9599
rfemur -32.9664 13.2234 15.3289
rtibia 46.0721
rfoot -8.44142 -8.2079
rtoes -10.3641
lfemur 11.1828 -3.25262 -27.3544
ltibia 34.6419
lfoot 1.33632 4.16471
ltoes -0.643431
154
root -2.0775 17.7289 12.025 -168.23 35.978 549.249
lowerback 4.77176 -7.98064 -0.540548
upperback 0.736072 -10.6277 0.932847
thorax -1.60604 -5.2966 1.87074
lowerneck -5.45347 7.98832 1.23882
upperneck -0.116589 10.998 -10.2322
head 1.61851 5.40988 -3.12542
rclavicle -3.18055e-014 -2.06736e-014
rhumerus -71.4654 11.6258 -90.6895
rradius 72.1474
rwrist -3.40729
rhand -26.1165 30.3932
rfingers 7.12502
rthumb 0.433229 0.413896
lclavicle -3.18055e-014 -2.06736e-014
lhumerus -55.2695 -2.40213 91.1222
lradius 123.004
lwrist 8.20563
lhand -15.9975 -15.1585
lfingers 7.12502
lthumb 10.2026 14.5741
rfemur -33.2699 14.6427 14.2433
rtibia 43.158
rfoot -8.06304 -8.44532
rtoes -10.4136
lfemur 10.9366 -3.17942 -27.2935
ltibia 35.7764
lfoot 2.0881 4.31651
ltoes -0.797468
